<svg width="183" height="219" viewBox="0 0 183 219" fill="none" xmlns="http://www.w3.org/2000/svg">
    <path d="M143.821 43.5041C133.026 43.5041 124.274 52.2564 124.274 63.052V93.1343C124.274 103.931 133.026 112.682 143.821 112.682H157.562C159.102 112.682 160.579 112.07 161.668 110.981C162.757 109.892 163.369 108.414 163.369 106.874V63.052C163.369 52.2564 154.618 43.5041 143.821 43.5041Z" fill="#EA2B2B"/>
    <path d="M90.9972 197.019C91.7039 200.136 90.9174 203.111 88.6368 205.946" stroke="#F49000" stroke-width="11.979" stroke-linecap="round" stroke-linejoin="round"/>
    <path d="M40.2329 43.4628H132.8C143.225 43.4628 151.676 51.9139 151.676 62.3388V157.82C151.676 168.245 143.225 176.696 132.8 176.696H40.2329C29.808 176.696 21.3569 168.245 21.3569 157.82V62.3388C21.3569 51.9139 29.808 43.4628 40.2329 43.4628Z" fill="#FF4B4B"/>
    <path d="M84.7892 43.4628H38.6516C28.1007 43.4628 19.5482 52.4957 19.5482 63.6387V156.521C19.5482 167.664 28.1007 176.697 38.6516 176.697H84.7892C95.3401 176.697 103.893 167.664 103.893 156.521V63.6387C103.893 52.4957 95.3401 43.4628 84.7892 43.4628Z" fill="#FF4B4B"/>
    <path d="M24.8549 53.2116L32.3624 50.3277C33.2523 50.0201 34.227 50.0703 35.0807 50.4678C35.9343 50.8653 36.6001 51.5789 36.9375 52.4581L43.1515 68.6647C43.4965 69.5635 43.4703 70.5626 43.0787 71.4421C42.6871 72.3215 41.9622 73.0094 41.0634 73.3544L21.7263 80.7831V63.6387C21.7263 59.84 22.8336 56.2283 24.8549 53.2116Z" fill="#1CB0F6" stroke="#FFDE00" stroke-width="4.356"/>
    <path d="M71.5779 76.5096L71.5816 76.5059C75.9293 72.9877 82.3066 73.6597 85.8257 78.0074C89.3475 82.3588 88.6765 88.7416 84.3269 92.2653L77.2961 97.9614L77.2915 97.9651C72.9438 101.484 66.5665 100.812 63.0483 96.4645C59.5265 92.1131 60.1975 85.7303 64.5471 82.2058L71.5779 76.5096Z" fill="white" stroke="#F49000" stroke-width="4.356"/>
    <path d="M120.907 61.0198C120.907 51.3233 128.767 43.4628 138.464 43.4628C148.16 43.4628 156.021 51.3233 156.021 61.0198V159.139C156.021 168.835 148.16 176.696 138.464 176.696C128.767 176.696 120.907 168.835 120.907 159.139V61.0198Z" fill="#EA2B2B"/>
    <path d="M148.651 109.258L160.25 111.936C164.352 112.883 166.91 116.976 165.963 121.078L157.986 155.63C157.039 159.732 152.946 162.289 148.844 161.342L137.245 158.665C133.143 157.718 130.585 153.624 131.532 149.522L139.509 114.971C140.456 110.869 144.549 108.311 148.651 109.258Z" fill="#CCF8F7"/>
    <path d="M162.439 120.856C154.846 124.145 149.768 126.106 147.203 126.737C145.008 127.279 143.043 126.482 141.304 124.345C141.175 124.187 141.004 124.068 140.811 124.002C140.618 123.936 140.41 123.926 140.212 123.972C140.013 124.018 139.831 124.119 139.687 124.264C139.544 124.408 139.443 124.59 139.397 124.789L133.873 148.965C133.423 150.933 133.772 152.999 134.844 154.71C135.915 156.421 137.622 157.637 139.589 158.091L147.336 159.879C149.304 160.334 151.372 159.988 153.085 158.919C154.799 157.85 156.018 156.145 156.476 154.177L163.932 122.102C163.978 121.906 163.968 121.701 163.904 121.51C163.84 121.318 163.724 121.149 163.569 121.02C163.415 120.89 163.227 120.807 163.027 120.778C162.828 120.749 162.624 120.776 162.439 120.856Z" fill="#47D7FF"/>
    <path d="M150.908 99.6513L163.597 102.581C164.573 102.806 165.182 103.781 164.957 104.757L164.144 108.278C163.919 109.255 162.944 109.864 161.967 109.639L149.279 106.709C148.302 106.484 147.693 105.509 147.919 104.532L148.732 101.011C148.957 100.035 149.932 99.4258 150.908 99.6513Z" fill="#1899D6"/>
    <path d="M148.28 106.439L162.033 109.614C163.008 109.839 163.615 110.812 163.39 111.786C163.166 112.761 162.193 113.368 161.218 113.143L147.465 109.968C146.49 109.743 145.883 108.771 146.108 107.796C146.333 106.822 147.305 106.214 148.28 106.439Z" fill="#CCF8F7"/>
    <path d="M15.5659 177.666C6.96911 177.666 1.14441e-05 170.502 1.14441e-05 161.665C1.14441e-05 152.828 6.96911 145.665 15.5659 145.665C24.1627 145.665 31.1318 152.828 31.1318 161.665C31.1318 170.502 24.1627 177.666 15.5659 177.666Z" fill="#78C800"/>
    <path d="M27.5205 140.839H41.9837C50.785 140.839 57.9199 147.974 57.9199 156.776C57.9199 165.577 50.785 172.712 41.9837 172.712H27.5205C18.7192 172.712 11.5843 165.577 11.5843 156.776C11.5843 147.974 18.7192 140.839 27.5205 140.839Z" stroke="#FF4B4B" stroke-width="6.897"/>
    <path d="M86.7911 87.4179C67.7941 93.049 55.4759 95.8641 49.8356 95.8641C46.6236 95.8641 43.2787 94.5028 39.8009 91.7794C33.0295 86.4774 23.2413 87.6691 17.9393 94.4414C15.7941 97.1814 14.6284 100.561 14.6283 104.041V150.803C14.6283 176.252 35.2588 196.883 60.7091 196.883C86.1576 196.883 106.789 176.252 106.789 150.802V102.349C106.789 93.7484 99.8169 86.7763 91.2158 86.7763C89.718 86.7763 88.2275 86.9926 86.7911 87.4179Z" fill="#78C800"/>
    <path fill-rule="evenodd" clip-rule="evenodd" d="M53.9368 109.836C49.9722 114.16 43.4987 113.441 40.1795 109.794C35.037 104.263 34.1487 112.565 37.5175 134.701H56.8151C57.5393 115.242 56.5805 106.953 53.9368 109.836Z" fill="#8EE000"/>
    <path fill-rule="evenodd" clip-rule="evenodd" d="M69.6199 103.472H68.4713C58.9233 103.472 51.183 111.212 51.183 120.761V131.158C51.183 140.706 58.9233 148.446 68.4713 148.446H69.6199C79.1679 148.446 86.9082 140.706 86.9082 131.158V120.761C86.9082 111.213 79.1679 103.472 69.6199 103.472Z" fill="#8EE000"/>
    <path d="M66.2769 96.4214L52.3051 111.606C51.5717 112.42 51.8449 113.711 52.8441 114.154C57.6446 116.29 63.3729 115.086 66.9855 111.074C70.599 107.062 71.1985 101.241 68.5722 96.6918C68.0259 95.7431 67.0102 95.6083 66.2769 96.4214Z" fill="#8EE000"/>
    <path d="M73.2318 100.031L59.556 115.215C58.8227 116.029 59.0959 117.32 60.095 117.763C64.8956 119.899 70.6239 118.695 74.2365 114.683C77.85 110.671 78.4495 104.85 75.8232 100.3C75.6959 100.08 75.5183 99.8933 75.305 99.7552C75.0918 99.6171 74.8488 99.5314 74.5961 99.5051C74.3434 99.4789 74.0881 99.5127 73.8509 99.604C73.6138 99.6953 73.4017 99.8423 73.2318 100.031ZM27.9549 96.9806L39.3087 109.26C39.9027 109.92 39.536 111.097 38.5845 111.585C34.0095 113.932 28.8945 113.382 25.9657 110.13C23.037 106.879 23.0232 101.735 25.8346 97.4325C26.4204 96.536 27.36 96.3215 27.9549 96.9806Z" fill="#8EE000"/>
    <path fill-rule="evenodd" clip-rule="evenodd" d="M28.0823 103.472C20.5849 103.472 14.5074 109.55 14.5074 117.046V134.871C14.5074 142.368 20.5849 148.446 28.0823 148.446C35.5797 148.446 41.6572 142.368 41.6572 134.871V117.046C41.6572 109.55 35.5797 103.471 28.0823 103.471V103.472Z" fill="#8EE000"/>
    <path d="M68.5271 109.49C61.522 109.49 55.8423 115.17 55.8423 122.175V130.002C55.8423 137.008 61.522 142.687 68.5271 142.687C75.5332 142.687 81.2129 137.008 81.2129 130.002V122.175C81.2129 115.17 75.5332 109.49 68.5271 109.49Z" fill="white"/>
    <mask id="mask0_111_1002" style="mask-type:luminance" maskUnits="userSpaceOnUse" x="52" y="105" width="34" height="42">
    <path d="M68.5271 109.49C61.5219 109.49 55.8422 115.17 55.8422 122.175V130.002C55.8422 137.007 61.5219 142.687 68.5271 142.687C75.5332 142.687 81.2119 137.007 81.2119 130.002V122.175C81.2119 115.17 75.5332 109.49 68.5271 109.49Z" stroke="#8EE000" stroke-width="7.623"/>
    </mask>
    <g mask="url(#mask0_111_1002)">
    <path d="M82.1689 137.225C73.5339 137.107 65.5709 139.883 58.2769 145.552" stroke="#8EE000" stroke-width="7.623"/>
    </g>
    <path d="M29.8515 109.852C24.2479 109.852 19.7049 114.395 19.7049 120V132.54C19.7049 138.143 24.2479 142.687 29.8524 142.687C35.456 142.687 39.999 138.143 39.999 132.54V120C39.999 114.395 35.456 109.852 29.8515 109.852Z" fill="white"/>
    <path d="M29.8515 109.852C24.2479 109.852 19.7049 114.395 19.7049 120V132.54C19.7049 138.143 24.2479 142.687 29.8524 142.687C35.456 142.687 39.999 138.143 39.999 132.54V120C39.999 114.395 35.456 109.852 29.8515 109.852Z" fill="white"/>
    <path fill-rule="evenodd" clip-rule="evenodd" d="M29.0781 114.405C28.4363 114.405 27.8008 114.532 27.2078 114.777C26.6148 115.023 26.076 115.383 25.6221 115.836C25.1682 116.29 24.8082 116.829 24.5625 117.422C24.3169 118.015 24.1905 118.65 24.1905 119.292V128.353C24.1905 128.994 24.3169 129.63 24.5625 130.223C24.808 130.816 25.168 131.354 25.6218 131.808C26.0755 132.262 26.6143 132.622 27.2071 132.867C27.8 133.113 28.4355 133.239 29.0772 133.239C29.719 133.239 30.3544 133.113 30.9473 132.867C31.5402 132.622 32.0789 132.262 32.5327 131.808C32.9865 131.354 33.3464 130.816 33.592 130.223C33.8376 129.63 33.964 128.994 33.964 128.353V119.292C33.9637 117.997 33.4489 116.754 32.5327 115.838C31.6165 114.921 30.3739 114.406 29.0781 114.405ZM64.1911 114.043C62.6069 114.043 61.0877 114.673 59.9675 115.793C58.8474 116.913 58.2181 118.432 58.2181 120.016V126.904C58.2181 128.488 58.8474 130.008 59.9675 131.128C61.0877 132.248 62.6069 132.877 64.1911 132.877C65.7752 132.877 67.2945 132.248 68.4146 131.128C69.5348 130.008 70.1641 128.488 70.1641 126.904V120.016C70.1641 118.432 69.5348 116.913 68.4146 115.793C67.2945 114.673 65.7752 114.043 64.1911 114.043Z" fill="#4B4B4B"/>
    <path fill-rule="evenodd" clip-rule="evenodd" d="M46.3145 131.687C44.5981 131.687 42.952 132.369 41.7383 133.583C40.5246 134.797 39.8428 136.443 39.8428 138.159V146.222C39.8428 147.938 40.5246 149.585 41.7383 150.798C42.952 152.012 44.5981 152.694 46.3145 152.694C48.0309 152.694 49.677 152.012 50.8906 150.798C52.1043 149.585 52.7861 147.938 52.7861 146.222V138.159C52.7861 136.443 52.1043 134.797 50.8906 133.583C49.677 132.369 48.0309 131.687 46.3145 131.687Z" fill="#F49000"/>
    <path d="M45.5907 134.584C44.3426 134.584 43.1455 135.08 42.2629 135.962C41.3804 136.845 40.8845 138.042 40.8845 139.29V145.09C40.8845 146.338 41.3804 147.535 42.2629 148.418C43.1455 149.3 44.3426 149.796 45.5907 149.796C46.8389 149.796 48.0359 149.3 48.9185 148.418C49.8011 147.535 50.2969 146.338 50.2969 145.09V139.29C50.2969 138.042 49.8011 136.845 48.9185 135.962C48.0359 135.08 46.8389 134.584 45.5907 134.584Z" fill="#CD7900"/>
    <mask id="mask1_111_1002" style="mask-type:luminance" maskUnits="userSpaceOnUse" x="40" y="134" width="11" height="16">
    <path d="M45.5907 134.584C44.9727 134.584 44.3607 134.706 43.7897 134.942C43.2188 135.179 42.7 135.525 42.2629 135.962C41.8259 136.399 41.4793 136.918 41.2428 137.489C41.0063 138.06 40.8845 138.672 40.8845 139.29V145.09C40.8845 146.338 41.3804 147.535 42.2629 148.418C43.1455 149.3 44.3426 149.796 45.5907 149.796C46.8389 149.796 48.0359 149.3 48.9185 148.418C49.801 147.535 50.2969 146.338 50.2969 145.09V139.29C50.2969 138.042 49.801 136.845 48.9185 135.962C48.0359 135.08 46.8389 134.584 45.5907 134.584V134.584Z" fill="#FFBABA"/>
    </mask>
    <g mask="url(#mask1_111_1002)">
    <path d="M50.4009 156.545C46.3022 156.545 42.9796 153.22 42.9796 149.12C42.9796 145.019 46.3022 141.695 50.4009 141.695C54.4996 141.695 57.8223 145.019 57.8223 149.12C57.8223 153.22 54.4996 156.545 50.4009 156.545Z" fill="#FFBABA"/>
    </g>
    <path d="M54.8088 138.161C54.0966 133.855 50.2897 130.65 45.7962 130.65C41.3027 130.65 37.4967 133.855 36.7853 138.161L36.7358 138.457L41.1881 139.986L54.8574 138.457L54.8088 138.161Z" fill="#FFC200"/>
    <path d="M47.6094 133.588C46.2668 133.128 44.8096 133.128 43.467 133.588" stroke="#FFDE00" stroke-width="2.59508" stroke-linecap="round" stroke-linejoin="round"/>
    <path d="M69.1932 121.641C67.0487 121.641 65.3102 119.899 65.3102 117.75C65.3102 115.602 67.0487 113.86 69.1932 113.86C71.3377 113.86 73.0762 115.602 73.0762 117.75C73.0762 119.899 71.3377 121.641 69.1932 121.641Z" fill="white"/>
    <path fill-rule="evenodd" clip-rule="evenodd" d="M33.9813 122.365C33.4708 122.365 32.9654 122.264 32.4939 122.068C32.0224 121.872 31.5941 121.586 31.2334 121.224C30.8728 120.863 30.5868 120.434 30.3919 119.962C30.1969 119.491 30.0969 118.985 30.0973 118.475C30.0969 117.964 30.1969 117.459 30.3919 116.987C30.5868 116.515 30.8728 116.086 31.2334 115.725C31.5941 115.364 32.0224 115.077 32.4939 114.881C32.9654 114.686 33.4708 114.585 33.9813 114.584C34.4917 114.585 34.997 114.686 35.4683 114.882C35.9397 115.077 36.3679 115.364 36.7285 115.725C37.089 116.086 37.3749 116.515 37.5698 116.987C37.7647 117.459 37.8647 117.964 37.8643 118.475C37.8647 118.985 37.7647 119.49 37.5698 119.962C37.3749 120.434 37.089 120.863 36.7285 121.224C36.3679 121.585 35.9397 121.872 35.4683 122.068C34.997 122.263 34.4917 122.364 33.9813 122.365Z" fill="white"/>
    <path fill-rule="evenodd" clip-rule="evenodd" d="M15.0497 138.842C15.3239 139.85 15.6995 140.827 16.1707 141.759C20.2224 143.699 28.5852 145.789 35.3804 145.789C37.8004 145.789 38.3834 142.726 37.2293 142.166C30.3635 138.838 23.2685 137.675 15.9452 138.677C15.6052 138.723 15.3072 138.779 15.0497 138.842Z" fill="#8EE000"/>
    <path d="M62.7938 164.024L51.1778 164.02C50.5544 164.02 50.1144 164.594 50.3069 165.155C51.2309 167.849 53.9186 169.711 56.9876 169.711C60.0566 169.713 62.7443 167.854 63.6664 165.16C63.8589 164.599 63.4162 164.024 62.7938 164.024ZM43.6079 164.024L31.9919 164.02C31.3686 164.02 30.9286 164.594 31.1211 165.155C32.0451 167.849 34.7328 169.711 37.8018 169.711C40.8708 169.713 43.5584 167.854 44.4806 165.16C44.6731 164.599 44.2303 164.024 43.6079 164.024ZM52.6582 173.803L41.0413 173.799C40.4189 173.799 39.9779 174.374 40.1704 174.934C41.0953 177.629 43.783 179.49 46.852 179.49C49.921 179.492 52.6078 177.633 53.5299 174.939C53.7224 174.378 53.2806 173.803 52.6582 173.803Z" fill="#8EE000"/>
    <path d="M26.3766 197.595C27.6343 200.532 30.0194 202.476 33.5303 203.428" stroke="#F49000" stroke-width="11.979" stroke-linecap="round" stroke-linejoin="round"/>
    <path d="M50.2694 0H41.3163C31.6931 0 23.8923 7.80083 23.8923 17.424V26.0388C23.8923 35.662 31.6931 43.4628 41.3163 43.4628H67.6934V17.424C67.6943 7.80267 59.8934 0 50.2694 0Z" fill="#1CB0F6"/>
    <path d="M62.3065 2.89758H102.039C110.66 2.89758 117.648 9.88597 117.648 18.5066V27.8538C117.648 36.4744 110.66 43.4628 102.039 43.4628H62.3065C53.6859 43.4628 46.6975 36.4744 46.6975 27.8538V18.5066C46.6975 9.88597 53.6859 2.89758 62.3065 2.89758Z" fill="#AA572A"/>
    <path d="M72.8115 0H97.6889C107.713 0 115.839 8.12603 115.839 18.15V25.3128C115.839 35.3368 107.713 43.4628 97.6889 43.4628H72.8115C62.7875 43.4628 54.6615 35.3368 54.6615 25.3128V18.15C54.6615 8.12603 62.7875 0 72.8115 0Z" fill="#1CB0F6"/>
    <path d="M106.832 2.89758H132.809C141.43 2.89758 148.418 9.88597 148.418 18.5066V27.8538C148.418 36.4744 141.43 43.4628 132.809 43.4628H106.832C98.2109 43.4628 91.2226 36.4744 91.2226 27.8538V18.5066C91.2226 9.88597 98.2109 2.89758 106.832 2.89758Z" fill="#AA572A"/>
    <path d="M117.698 0H139.319C149.143 0 157.106 7.96351 157.106 17.787V25.6758C157.106 35.4993 149.143 43.4628 139.319 43.4628H117.698C107.875 43.4628 99.911 35.4993 99.911 25.6758V17.787C99.911 7.96351 107.875 0 117.698 0Z" fill="#1CB0F6"/>
    <path d="M141.223 0H143.667C152.689 0 160.002 7.31343 160.002 16.335V27.1278C160.002 36.1494 152.689 43.4628 143.667 43.4628H141.223C132.202 43.4628 124.888 36.1494 124.888 27.1278V16.335C124.888 7.31343 132.202 0 141.223 0Z" fill="#0190D3"/>
    <path d="M159.266 144.823H121.268V176.696H159.266C160.421 176.696 161.529 176.237 162.346 175.42C163.163 174.604 163.622 173.496 163.622 172.341V149.179C163.622 148.024 163.163 146.916 162.346 146.099C161.529 145.282 160.421 144.823 159.266 144.823Z" fill="#EA2B2B"/>
    <path d="M153.485 150.256C152.472 150.256 151.638 151.053 151.592 152.065L151.069 163.3C151.054 163.626 151.105 163.953 151.22 164.259C151.334 164.565 151.51 164.845 151.736 165.082C151.962 165.318 152.233 165.507 152.534 165.635C152.835 165.764 153.158 165.83 153.485 165.83C153.812 165.83 154.136 165.764 154.437 165.635C154.738 165.507 155.009 165.318 155.235 165.082C155.461 164.845 155.636 164.565 155.751 164.259C155.866 163.953 155.917 163.626 155.902 163.3L155.379 152.065C155.357 151.578 155.147 151.118 154.795 150.781C154.442 150.444 153.973 150.256 153.485 150.256ZM131.518 86.9257C130.506 86.9257 129.672 87.7213 129.625 88.7333L129.103 99.9689C129.088 100.296 129.139 100.622 129.254 100.928C129.369 101.234 129.544 101.514 129.77 101.751C129.996 101.987 130.267 102.175 130.568 102.304C130.869 102.433 131.192 102.499 131.519 102.499C131.846 102.499 132.17 102.433 132.471 102.304C132.771 102.175 133.043 101.987 133.268 101.751C133.494 101.514 133.67 101.234 133.785 100.928C133.899 100.622 133.951 100.296 133.936 99.9689L133.413 88.7333C133.39 88.2463 133.181 87.7867 132.828 87.4501C132.476 87.1134 132.006 86.9256 131.518 86.9257Z" fill="#DF8A8A"/>
    <path opacity="0.551" d="M155.294 80.7684H130.684C130.083 80.7684 129.595 81.2561 129.595 81.8574V83.6632C129.595 84.2646 130.083 84.7523 130.684 84.7523H155.294C155.583 84.7523 155.86 84.6375 156.064 84.4333C156.268 84.2291 156.383 83.9521 156.383 83.6632V81.8574C156.383 81.2561 155.895 80.7684 155.294 80.7684Z" fill="#D8D8D8"/>
    <path d="M91.0503 140.115H99.3581C108.46 140.115 115.838 147.493 115.838 156.595C115.838 165.696 108.46 173.074 99.3581 173.074H91.0503C81.9487 173.074 74.5705 165.696 74.5705 156.595C74.5705 147.493 81.9487 140.115 91.0503 140.115Z" stroke="#EA2B2B" stroke-width="6.897"/>
    <path d="M96.4715 180.495C85.7757 180.495 77.1051 171.66 77.1051 160.76C77.1051 149.861 85.7757 141.025 96.4715 141.025C107.167 141.025 115.838 149.861 115.838 160.76C115.838 171.66 107.167 180.495 96.4715 180.495Z" fill="#78C800"/>
    <path d="M109.673 215.31H18.5967" stroke="#E2E2E2" stroke-width="7.26733" stroke-linecap="round" stroke-linejoin="round"/>
    </svg>
    