<svg width="223" height="230" viewBox="0 0 223 230" fill="none" xmlns="http://www.w3.org/2000/svg">
    <path d="M97.7549 1.11188C97.8489 0.895371 97.6179 0.657475 97.3979 0.744878C96.4359 1.12821 94.5939 1.77147 93.1919 1.71157C91.6489 1.64561 89.5989 0.660015 88.5539 0.102935C88.3399 -0.0114881 88.0769 0.217338 88.1599 0.445608C88.5669 1.55352 89.2589 3.70856 89.1189 5.22834C88.9879 6.6634 88.0989 8.35916 87.5889 9.22936C87.4709 9.43078 87.6649 9.69371 87.8919 9.63944C88.9269 9.39215 90.9689 8.97697 92.4869 9.12916C93.9349 9.27423 95.7949 9.91968 96.6469 10.2388C96.8409 10.3111 97.0429 10.1344 96.9969 9.93314C96.7909 9.01795 96.3879 6.99653 96.4759 5.51407C96.5629 4.03334 97.3249 2.09937 97.7549 1.11188Z" fill="white"/>
    <path d="M15.4181 217.362C15.6461 217.301 15.6851 216.973 15.4791 216.858C14.4812 216.301 12.5363 215.11 11.5724 213.803C10.5105 212.364 9.92055 209.771 9.68157 208.489C9.63757 208.25 9.29659 208.189 9.1716 208.398C8.50665 209.516 7.06774 211.736 5.59685 212.715C4.20796 213.639 2.01115 214.057 0.911236 214.217C0.680254 214.25 0.596255 214.564 0.781241 214.706C1.70917 215.418 3.58902 216.958 4.55494 218.436C5.47187 219.841 6.23482 221.993 6.54679 222.94C6.61079 223.136 6.87379 223.182 7.00178 223.02C7.63773 222.216 9.16261 220.374 10.5565 219.38C11.9544 218.383 14.2742 217.672 15.4181 217.362Z" fill="white"/>
    <path d="M210.175 198.369C210.411 198.363 210.525 198.054 210.353 197.893C209.494 197.099 207.82 195.424 207.168 193.871C206.45 192.163 206.494 189.403 206.567 188.07C206.58 187.827 206.263 187.688 206.094 187.862C205.163 188.814 203.17 190.705 201.45 191.33C199.825 191.922 197.507 191.802 196.374 191.694C196.142 191.672 195.987 191.957 196.134 192.139C196.885 193.07 198.406 195.081 199.017 196.806C199.597 198.443 199.837 200.798 199.918 201.813C199.935 202.018 200.179 202.125 200.342 201.998C201.166 201.352 203.152 199.868 204.796 199.209C206.447 198.546 208.962 198.4 210.175 198.369Z" fill="white"/>
    <path d="M121.494 23.7482C93.035 23.7482 75.6534 52.6309 75.6534 85.5682C75.6534 103.001 72.6136 111.232 69.9158 118.535C67.764 124.36 65.8301 129.595 65.8301 138.441C65.8301 158.377 89.5213 198.826 134.594 198.826C179.665 198.826 223.004 167.911 223.004 109.26C223.004 60.3657 197.705 36.9717 179.913 30.5412C176.673 29.2166 173.125 28.4865 169.407 28.4865C163.1 28.4865 155.003 29.0816 150.34 32.6225C143.41 28.7909 134.235 23.7482 121.494 23.7482Z" fill="white"/>
    <path d="M155.846 91.8138L47.1299 56.7319C41.3034 54.8515 35.1858 59.7426 35.0498 66.3912C34.3949 98.3357 53.1235 126.584 81.8453 135.854C110.568 145.122 142.141 133.105 160.084 106.739C163.819 101.251 161.673 93.6942 155.846 91.8138Z" fill="white"/>
    <path d="M135.472 77.1627L37.8614 110.597C32.6298 112.388 30.9889 119.636 34.6206 124.91C52.0713 150.248 81.3441 161.846 107.132 153.012C132.921 144.179 148.811 117.112 146.883 86.4572C146.482 80.077 140.704 75.3707 135.472 77.1627Z" fill="white"/>
    <path fill-rule="evenodd" clip-rule="evenodd" d="M119.733 229.284L128.198 229.896L128.597 229.892C138.875 229.774 147.111 221.346 146.993 211.068C146.917 204.394 143.343 198.591 138.033 195.367C135.672 189.663 130.531 185.257 123.992 184.13C113.862 182.385 104.236 189.181 102.49 199.311L102.466 199.452L101.351 207.325C100.484 212.641 101.973 217.817 105.032 221.75C108.364 226.246 113.709 229.204 119.733 229.284Z" fill="white"/>
    <path fill-rule="evenodd" clip-rule="evenodd" d="M25.7684 163.155C23.7505 157.833 26.2783 151.939 31.4159 149.991L43.146 146.434C48.2836 144.486 54.0842 147.22 56.103 152.541C58.1209 157.863 55.5931 163.757 50.4555 165.705L38.7253 169.261C33.5877 171.21 27.7872 168.476 25.7684 163.155Z" fill="white"/>
    <path fill-rule="evenodd" clip-rule="evenodd" d="M28.5802 141.669L28.3002 141.775C18.355 145.547 13.9183 156.687 17.554 166.27C21.1497 175.75 31.6649 181.131 41.5182 177.597L53.2913 174.027L53.5713 173.921C63.5165 170.148 67.9532 159.009 64.3174 149.426C60.7217 139.946 50.2066 134.565 40.3533 138.1L28.5802 141.669ZM43.1461 146.434C48.2837 144.486 54.0842 147.22 56.1031 152.541C58.1209 157.863 55.5931 163.757 50.4555 165.705L38.7254 169.261C33.5878 171.21 27.7873 168.476 25.7684 163.155C23.7506 157.833 26.2783 151.939 31.4159 149.991L43.1461 146.434Z" fill="white"/>
    <path d="M97.7549 1.11188C97.8489 0.895371 97.6179 0.657475 97.3979 0.744878C96.4359 1.12821 94.5939 1.77147 93.1919 1.71157C91.6489 1.64561 89.5989 0.660015 88.5539 0.102935C88.3399 -0.0114881 88.0769 0.217338 88.1599 0.445608C88.5669 1.55352 89.2589 3.70856 89.1189 5.22834C88.9879 6.6634 88.0989 8.35916 87.5889 9.22936C87.4709 9.43078 87.6649 9.69371 87.8919 9.63944C88.9269 9.39215 90.9689 8.97697 92.4869 9.12916C93.9349 9.27423 95.7949 9.91968 96.6469 10.2388C96.8409 10.3111 97.0429 10.1344 96.9969 9.93314C96.7909 9.01795 96.3879 6.99653 96.4759 5.51407C96.5629 4.03334 97.3249 2.09937 97.7549 1.11188Z" fill="white"/>
    <path d="M15.4181 217.362C15.6461 217.301 15.6851 216.973 15.4791 216.858C14.4812 216.301 12.5363 215.11 11.5724 213.803C10.5105 212.364 9.92055 209.771 9.68157 208.489C9.63757 208.25 9.29659 208.189 9.1716 208.398C8.50665 209.516 7.06774 211.736 5.59685 212.715C4.20796 213.639 2.01115 214.057 0.911236 214.217C0.680254 214.25 0.596255 214.564 0.781241 214.706C1.70917 215.418 3.58902 216.958 4.55494 218.436C5.47187 219.841 6.23482 221.993 6.54679 222.94C6.61079 223.136 6.87379 223.182 7.00178 223.02C7.63773 222.216 9.16261 220.374 10.5565 219.38C11.9544 218.383 14.2742 217.672 15.4181 217.362Z" fill="white"/>
    <path d="M210.175 198.369C210.411 198.363 210.525 198.054 210.353 197.893C209.494 197.099 207.82 195.424 207.168 193.871C206.45 192.163 206.494 189.403 206.567 188.07C206.58 187.827 206.263 187.688 206.094 187.862C205.163 188.814 203.17 190.705 201.45 191.33C199.825 191.922 197.507 191.802 196.374 191.694C196.142 191.672 195.987 191.957 196.134 192.139C196.885 193.07 198.406 195.081 199.017 196.806C199.597 198.443 199.837 200.798 199.918 201.813C199.935 202.018 200.179 202.125 200.342 201.998C201.166 201.352 203.152 199.868 204.796 199.209C206.447 198.546 208.962 198.4 210.175 198.369Z" fill="white"/>
    <path d="M121.494 23.7482C93.035 23.7482 75.6534 52.6309 75.6534 85.5682C75.6534 103.001 72.6136 111.232 69.9158 118.535C67.764 124.36 65.8301 129.595 65.8301 138.441C65.8301 158.377 89.5213 198.826 134.594 198.826C179.665 198.826 223.004 167.911 223.004 109.26C223.004 60.3657 197.705 36.9717 179.913 30.5412C176.673 29.2166 173.125 28.4865 169.407 28.4865C163.1 28.4865 155.003 29.0816 150.34 32.6225C143.41 28.7909 134.235 23.7482 121.494 23.7482Z" fill="white"/>
    <path d="M155.846 91.8138L47.1299 56.7319C41.3034 54.8515 35.1858 59.7426 35.0498 66.3912C34.3949 98.3357 53.1235 126.584 81.8453 135.854C110.568 145.122 142.141 133.105 160.084 106.739C163.819 101.251 161.673 93.6942 155.846 91.8138Z" fill="white"/>
    <path d="M135.472 77.1627L37.8614 110.597C32.6298 112.388 30.9889 119.636 34.6206 124.91C52.0713 150.248 81.3441 161.846 107.132 153.012C132.921 144.179 148.811 117.112 146.883 86.4572C146.482 80.077 140.704 75.3707 135.472 77.1627Z" fill="white"/>
    <path fill-rule="evenodd" clip-rule="evenodd" d="M119.733 229.284L128.198 229.896L128.597 229.892C138.875 229.774 147.111 221.346 146.993 211.068C146.917 204.394 143.343 198.591 138.033 195.367C135.672 189.663 130.531 185.257 123.992 184.13C113.862 182.385 104.236 189.181 102.49 199.311L102.466 199.452L101.351 207.325C100.484 212.641 101.973 217.817 105.032 221.75C108.364 226.246 113.709 229.204 119.733 229.284Z" fill="white"/>
    <path fill-rule="evenodd" clip-rule="evenodd" d="M25.7684 163.155C23.7505 157.833 26.2783 151.939 31.4159 149.991L43.146 146.434C48.2836 144.486 54.0842 147.22 56.103 152.541C58.1209 157.863 55.5931 163.757 50.4555 165.705L38.7253 169.261C33.5877 171.21 27.7872 168.476 25.7684 163.155Z" fill="white"/>
    <path fill-rule="evenodd" clip-rule="evenodd" d="M28.5802 141.669L28.3002 141.775C18.355 145.547 13.9183 156.687 17.554 166.27C21.1497 175.75 31.6649 181.131 41.5182 177.597L53.2913 174.027L53.5713 173.921C63.5165 170.148 67.9532 159.009 64.3174 149.426C60.7217 139.946 50.2066 134.565 40.3533 138.1L28.5802 141.669ZM43.1461 146.434C48.2837 144.486 54.0842 147.22 56.1031 152.541C58.1209 157.863 55.5931 163.757 50.4555 165.705L38.7254 169.261C33.5878 171.21 27.7873 168.476 25.7684 163.155C23.7506 157.833 26.2783 151.939 31.4159 149.991L43.1461 146.434Z" fill="white"/>
    <path fill-rule="evenodd" clip-rule="evenodd" d="M25.7683 163.159C23.7494 157.837 26.2782 151.943 31.4158 149.996L43.145 146.439C48.2826 144.49 54.0841 147.225 56.102 152.546C58.1208 157.868 55.592 163.762 50.4554 165.71L38.7253 169.266C33.5876 171.215 27.7871 168.48 25.7683 163.159Z" fill="#E619DF"/>
    <path fill-rule="evenodd" clip-rule="evenodd" d="M112.771 216.363C111.21 214.406 110.46 211.816 110.919 209.155L112.032 201.297C112.884 196.354 117.58 193.037 122.523 193.889C126.901 194.644 130.004 198.417 130.062 202.705C134.312 203.422 137.572 207.094 137.623 211.556C137.681 216.571 133.662 220.682 128.646 220.74L120.242 220.132C117.172 220.167 114.441 218.675 112.771 216.363Z" fill="#E619DF"/>
    <path d="M128.987 88.8814L50.8483 115.649C46.6607 117.084 45.1728 122.38 47.9115 126.108C61.0685 144.023 83.9408 151.671 104.585 144.599C125.23 137.528 138.511 117.494 137.78 95.3228C137.628 90.7082 133.175 87.4466 128.987 88.8814Z" fill="#CB32DD"/>
    <path d="M133.546 94.0571L54.9401 68.6928C50.7275 67.3332 46.3648 70.6837 46.3238 75.3097C46.1308 97.536 59.8668 117.359 80.6342 124.061C101.402 130.762 124.036 122.674 136.729 104.481C139.372 100.695 137.76 95.4166 133.546 94.0571Z" fill="url(#paint0_radial_111_948)"/>
    <path fill-rule="evenodd" clip-rule="evenodd" d="M126.497 33.6571C101.736 33.6571 86.2758 58.5436 86.2758 87.2008C86.2758 102.368 83.631 109.529 81.2842 115.883C79.4124 120.952 77.7295 125.507 77.7295 133.203C77.7295 150.549 98.342 185.741 137.557 185.741C176.773 185.741 214.479 158.844 214.479 107.814C214.479 65.2724 192.467 44.9185 176.987 39.3241C174.167 38.1718 171.081 37.5367 167.848 37.5367C162.359 37.5367 157.298 39.3652 153.241 42.446C153.12 42.3791 152.997 42.3112 152.873 42.2426C146.824 38.8952 137.359 33.6571 126.497 33.6571Z" fill="url(#paint1_radial_111_948)"/>
    <mask id="mask0_111_948" style="mask-type:alpha" maskUnits="userSpaceOnUse" x="46" y="32" width="169" height="154">
    <path d="M133.224 93.3974L54.6184 68.0331C50.4047 66.6735 46.042 70.0241 46.002 74.65C45.809 96.8763 59.544 116.699 80.3114 123.401C101.079 130.102 123.713 122.014 136.407 103.821C139.049 100.036 137.437 94.7569 133.224 93.3974Z" fill="url(#paint2_radial_111_948)"/>
    <path fill-rule="evenodd" clip-rule="evenodd" d="M126.174 32.9975C101.414 32.9975 85.9541 57.884 85.9541 86.5411C85.9541 101.709 83.3093 108.869 80.9615 115.224C79.0896 120.292 77.4067 124.848 77.4067 132.543C77.4067 149.889 98.0202 185.081 137.235 185.081C176.45 185.081 214.157 158.184 214.157 107.154C214.157 64.6128 192.144 44.2588 176.665 38.6645C173.845 37.5122 170.76 36.8771 167.525 36.8771C162.037 36.8771 156.977 38.7056 152.919 41.7863C152.797 41.7194 152.675 41.6515 152.551 41.5829C146.503 38.2356 137.037 32.9975 126.174 32.9975Z" fill="url(#paint3_radial_111_948)"/>
    </mask>
    <g mask="url(#mask0_111_948)">
    <path fill-rule="evenodd" clip-rule="evenodd" d="M76.1337 123.475C75.9377 124.213 76.3757 124.971 77.1136 125.168C83.8411 126.962 88.0198 127.612 96.4902 126.97C97.2521 126.913 97.822 126.248 97.765 125.487C97.707 124.726 97.0431 124.155 96.2822 124.213C88.1618 124.828 84.296 124.221 77.8265 122.496C77.0886 122.299 76.3307 122.738 76.1337 123.475Z" fill="#A25AFF"/>
    </g>
    <path opacity="0.8" d="M173.888 155.277C173.84 152.511 172.413 153.766 156.531 151.302C154.691 151.018 153.951 151.479 153.985 153.429C154.006 154.614 157.023 159.833 163.066 160.281C169.108 160.729 173.936 158.044 173.888 155.277Z" fill="#3863F6"/>
    <path opacity="0.8" d="M186.911 165.053C186.606 162.707 185.513 163.91 171.778 163.332C170.186 163.265 169.602 163.728 169.817 165.381C169.947 166.387 173.01 170.535 178.189 170.339C183.368 170.143 187.216 167.4 186.911 165.053Z" fill="#3863F6"/>
    <path opacity="0.8" d="M197.639 155.312C197.719 152.878 197.3 154.148 185.152 153.645C183.745 153.587 183.263 154.093 183.57 155.883C183.757 156.97 186.8 160.63 191.351 160.372C195.903 160.113 197.559 157.746 197.639 155.312Z" fill="#3863F6"/>
    <path opacity="0.7" fill-rule="evenodd" clip-rule="evenodd" d="M135.03 73.4654C134.343 72.7783 133.229 72.7783 132.542 73.4654C129.229 76.7774 127.211 79.6719 126.043 82.5665C124.871 85.4707 124.611 88.239 124.611 91.175V110.657C124.611 112.016 125.061 114.231 125.974 116.719C126.902 119.248 128.358 122.195 130.48 125.009C134.752 130.67 141.742 135.795 152.388 135.795C169.173 135.795 176.998 125.803 178.817 120.393C179.127 119.472 178.631 118.474 177.71 118.164C176.789 117.854 175.791 118.35 175.481 119.271C174.116 123.33 167.579 132.275 152.388 132.275C143.05 132.275 137.031 127.847 133.29 122.889C131.406 120.392 130.105 117.761 129.277 115.506C128.435 113.209 128.131 111.435 128.131 110.657V91.175C128.131 88.4549 128.374 86.1957 129.306 83.8837C130.243 81.5622 131.932 79.0521 135.03 75.9539C135.718 75.2668 135.718 74.1526 135.03 73.4654Z" fill="#0D5CFF"/>
    <path opacity="0.7" fill-rule="evenodd" clip-rule="evenodd" d="M212.416 128.157C209.544 131.01 206.127 132.423 202.814 132.766C200.136 133.044 197.552 132.619 195.43 131.723C193.344 130.843 191.516 129.424 190.64 127.562C190.226 126.683 190.604 125.635 191.483 125.221C192.363 124.808 193.411 125.184 193.825 126.064C194.206 126.873 195.191 127.803 196.797 128.48C198.366 129.142 200.354 129.483 202.452 129.266C206.554 128.841 211.187 126.269 213.845 119.45C213.852 119.432 213.859 119.414 213.867 119.397C213.522 122.416 213.035 125.336 212.416 128.157Z" fill="#166AFF"/>
    <path opacity="0.5" fill-rule="evenodd" clip-rule="evenodd" d="M200.094 58.2378C199.94 61.2554 199.513 64.7255 198.501 68.0018C196.918 73.1244 193.777 78.1227 187.673 79.8085C186.736 80.0672 185.767 79.5176 185.508 78.5808C185.249 77.6441 185.799 76.675 186.736 76.4162C191.19 75.1861 193.726 71.5328 195.139 66.9626C196.532 62.4543 196.71 57.3939 196.636 53.9166C197.817 55.2616 198.974 56.7011 200.094 58.2378Z" fill="#1B68FF"/>
    <path fill-rule="evenodd" clip-rule="evenodd" d="M154.843 55.5288C154.135 54.9304 153.631 54.7056 153.326 54.6185C153.034 54.535 152.843 54.5536 152.702 54.5792C151.747 54.7531 150.831 54.1189 150.657 53.1628C150.483 52.2066 151.118 51.2906 152.074 51.1167C152.623 51.0166 153.375 50.9723 154.293 51.2346C155.192 51.4913 156.15 52.013 157.178 52.8946L157.225 52.9344L157.268 52.9774C164.248 59.8559 176.335 71.5 181.509 76.4648C182.21 77.1376 182.233 78.2516 181.561 78.9528C180.888 79.654 179.774 79.677 179.073 79.0042C173.91 74.0503 161.848 62.4314 154.843 55.5288Z" fill="#C7FFFE"/>
    <path fill-rule="evenodd" clip-rule="evenodd" d="M142.878 60.669C142.878 60.669 142.877 60.6676 142.874 60.6649L147.809 66.4955C148.437 67.2374 149.548 67.3297 150.29 66.7019C151.031 66.074 151.124 64.9636 150.496 64.2217L145.564 58.395L145.563 58.3936C145.142 57.895 144.443 57.4045 143.738 57.0569C143.021 56.7035 142.009 56.3539 140.936 56.4397C139.967 56.5172 139.245 57.3655 139.322 58.3343C139.4 59.3031 140.248 60.0256 141.217 59.9481C141.401 59.9334 141.748 60.0001 142.182 60.2139C142.38 60.3114 142.557 60.4207 142.693 60.5198C142.823 60.6137 142.878 60.669 142.878 60.669Z" fill="#C7FFFE"/>
    <path d="M192.483 95.7897C192.483 85.8208 194.082 77.7395 198.843 77.7395C203.606 77.7395 209.73 85.8208 209.73 95.7897V105.943C209.73 115.912 203.606 123.994 198.843 123.994C194.082 123.994 192.483 115.912 192.483 105.943V95.7897Z" fill="#C7FFFE"/>
    <path d="M135.169 95.3253C135.169 84.8087 143.694 76.2833 154.21 76.2833C164.728 76.2833 173.253 84.8087 173.253 95.3253V106.036C173.253 116.553 164.728 125.078 154.21 125.078C143.694 125.078 135.169 116.553 135.169 106.036V95.3253Z" fill="#C7FFFE"/>
    <path fill-rule="evenodd" clip-rule="evenodd" d="M162.134 96.4626C159.111 96.4626 156.662 93.8178 156.662 90.5552C156.662 89.4125 156.963 88.3456 157.483 87.4416C156.41 86.9846 155.229 86.7317 153.989 86.7317C149.059 86.7317 145.062 90.728 145.062 95.6576V105.179C145.062 110.109 149.059 114.104 153.989 114.104C158.918 114.104 162.914 110.109 162.914 105.179V96.403C162.659 96.4423 162.399 96.4626 162.134 96.4626Z" fill="#4223FF"/>
    <path fill-rule="evenodd" clip-rule="evenodd" d="M200.972 96.8352C199.135 96.8352 197.645 94.1903 197.645 90.9278C197.645 89.547 197.912 88.2768 198.359 87.271C197.789 86.9221 197.174 86.7317 196.531 86.7317C195.052 86.7317 193.714 87.7406 192.748 89.3699C192.566 91.3631 192.484 93.5252 192.484 95.7843V105.938C192.484 107.813 192.54 109.621 192.664 111.321C193.635 113.035 195.009 114.104 196.531 114.104C199.474 114.104 201.861 110.109 201.861 105.179V96.6223C201.578 96.7611 201.28 96.8352 200.972 96.8352Z" fill="#4223FF"/>
    <path fill-rule="evenodd" clip-rule="evenodd" d="M195.844 120.518V120.976C195.844 126.624 191.265 131.204 185.616 131.204C179.968 131.204 175.389 126.624 175.389 120.976V119.641C175.389 119.632 175.389 119.622 175.389 119.613C176.33 119.792 177.576 120.022 178.909 120.251V120.976C178.909 124.681 181.912 127.684 185.616 127.684C189.145 127.684 192.037 124.961 192.305 121.501C192.46 121.505 192.606 121.509 192.743 121.513C193.539 121.532 194.321 121.339 195.021 120.962L195.844 120.518Z" fill="#1769FF"/>
    <path fill-rule="evenodd" clip-rule="evenodd" d="M182.546 109.34C183.743 108.92 185.057 108.693 186.475 108.693C192.637 108.693 197.799 112.972 199.151 118.72C199.227 119.041 199.069 119.368 198.78 119.524L196.139 120.949C196.04 122.684 190.332 122.733 190.231 121.096C186.358 111.627 184.593 110.463 181.864 110.112L182.546 109.34Z" fill="#C7FFFE"/>
    <path fill-rule="evenodd" clip-rule="evenodd" d="M173.687 118.097C173.451 118.968 173.966 119.866 174.837 120.102L190.121 124.248C193.131 125.065 196.346 124.171 198.503 121.918C199.127 121.266 199.105 120.232 198.453 119.607C197.801 118.983 196.766 119.006 196.142 119.658C194.814 121.046 192.832 121.597 190.976 121.094L175.692 116.948C174.821 116.712 173.924 117.226 173.687 118.097Z" fill="#1B68FF"/>
    <defs>
    <radialGradient id="paint0_radial_111_948" cx="0" cy="0" r="1" gradientUnits="userSpaceOnUse" gradientTransform="translate(178.019 58.1232) rotate(114.523) scale(140.271 181.97)">
    <stop stop-color="#26FF55"/>
    <stop offset="0.466774" stop-color="#268AFF"/>
    <stop offset="0.973038" stop-color="#FC55FF"/>
    </radialGradient>
    <radialGradient id="paint1_radial_111_948" cx="0" cy="0" r="1" gradientUnits="userSpaceOnUse" gradientTransform="translate(178.019 58.1232) rotate(114.523) scale(140.271 181.97)">
    <stop stop-color="#26FF55"/>
    <stop offset="0.466774" stop-color="#268AFF"/>
    <stop offset="0.973038" stop-color="#FC55FF"/>
    </radialGradient>
    <radialGradient id="paint2_radial_111_948" cx="0" cy="0" r="1" gradientUnits="userSpaceOnUse" gradientTransform="translate(177.697 57.4635) rotate(114.523) scale(140.271 181.97)">
    <stop stop-color="#26FF55"/>
    <stop offset="0.466774" stop-color="#268AFF"/>
    <stop offset="0.973038" stop-color="#FC55FF"/>
    </radialGradient>
    <radialGradient id="paint3_radial_111_948" cx="0" cy="0" r="1" gradientUnits="userSpaceOnUse" gradientTransform="translate(177.697 57.4635) rotate(114.523) scale(140.271 181.97)">
    <stop stop-color="#26FF55"/>
    <stop offset="0.466774" stop-color="#268AFF"/>
    <stop offset="0.973038" stop-color="#FC55FF"/>
    </radialGradient>
    </defs>
    </svg>
    