<svg width="109" height="81" viewBox="0 0 109 81" fill="none" xmlns="http://www.w3.org/2000/svg">
    <g clip-path="url(#clip0_111_1848)">
    <mask id="mask0_111_1848" style="mask-type:luminance" maskUnits="userSpaceOnUse" x="14" y="4" width="81" height="75">
    <path d="M94.7422 4.5H14.7422V78.3462H94.7422V4.5Z" fill="white"/>
    </mask>
    <g mask="url(#mask0_111_1848)">
    <path fill-rule="evenodd" clip-rule="evenodd" d="M68.8696 26.2126C77.4808 26.2126 84.9974 32.1276 87.1316 40.5834L93.1694 64.5054C94.5382 69.9286 91.3104 75.4496 85.9598 76.837C85.15 77.047 84.3174 77.1532 83.4814 77.1532H54.2578C48.735 77.1532 44.2578 72.6152 44.2578 67.0174C44.2578 66.1702 44.3626 65.3262 44.5698 64.5054L50.6076 40.5834C52.7418 32.1276 60.2584 26.2126 68.8696 26.2126Z" fill="#363636"/>
    <path fill-rule="evenodd" clip-rule="evenodd" d="M68.8696 32.7628C77.5132 32.7628 84.5204 39.865 84.5204 48.6262V56.691C84.5204 65.452 77.5132 72.5542 68.8696 72.5542C60.2258 72.5542 53.2188 65.452 53.2188 56.691V48.6262C53.2188 39.865 60.2258 32.7628 68.8696 32.7628Z" fill="#A56644"/>
    <path d="M77.4719 28.4666C77.9831 28.4666 78.3977 28.8868 78.3977 29.405C78.3977 37.1204 72.2269 43.3748 64.6147 43.3748H50.3291C49.8177 43.3748 49.4033 42.9548 49.4033 42.4366V29.405C49.4033 28.8868 49.8177 28.4666 50.3291 28.4666H77.4719Z" fill="#363636"/>
    <path d="M74.9962 54.9368C75.5074 54.9368 75.9218 55.3568 75.9218 55.875V56.898C75.9218 60.846 72.7642 64.0464 68.8692 64.0464C64.974 64.0464 61.8164 60.846 61.8164 56.898V55.875C61.8164 55.3568 62.231 54.9368 62.7422 54.9368H74.9962Z" fill="white"/>
    <path d="M75.3133 46.4058C75.3133 45.3752 74.4889 44.5396 73.4721 44.5396C72.4551 44.5396 71.6309 45.3752 71.6309 46.4058V50.2302C71.6309 51.261 72.4551 52.0964 73.4721 52.0964C74.4889 52.0964 75.3133 51.261 75.3133 50.2302V46.4058Z" fill="#7B482D"/>
    <path d="M66.1074 46.4058C66.1074 45.3752 65.283 44.5396 64.266 44.5396C63.2492 44.5396 62.4248 45.3752 62.4248 46.4058V50.2302C62.4248 51.261 63.2492 52.0964 64.266 52.0964C65.283 52.0964 66.1074 51.261 66.1074 50.2302V46.4058Z" fill="#7B482D"/>
    <path d="M86.0433 55.875C89.0941 55.875 91.5671 53.3374 91.5671 50.2072C91.5671 47.077 89.0941 44.5396 86.0433 44.5396C82.9927 44.5396 80.5195 47.077 80.5195 50.2072C80.5195 53.3374 82.9927 55.875 86.0433 55.875Z" fill="#A56644"/>
    <path d="M51.6947 55.875C54.7453 55.875 57.2185 53.3374 57.2185 50.2072C57.2185 47.077 54.7453 44.5396 51.6947 44.5396C48.6439 44.5396 46.1709 47.077 46.1709 50.2072C46.1709 53.3374 48.6439 55.875 51.6947 55.875Z" fill="#A56644"/>
    <path d="M39.3895 5.00962C49.2737 5.00962 57.2865 13.1312 57.2865 23.1498V31.4864C57.2865 32.0046 56.8721 32.4246 56.3609 32.4246L27.8616 32.4212L24.5942 32.1354C24.2335 32.1038 23.924 31.862 23.8021 31.5162L21.1399 23.9662L21.0859 23.6504V23.1498C21.0859 13.1312 29.0988 5.00962 38.9831 5.00962H39.3895Z" fill="#FFD900"/>
    <path d="M56.3617 38.871C59.4125 38.871 61.8855 36.3914 61.8855 33.3324C61.8855 30.2736 59.4125 27.794 56.3617 27.794C53.3111 27.794 50.8379 30.2736 50.8379 33.3324C50.8379 36.3914 53.3111 38.871 56.3617 38.871Z" fill="#FFAD92"/>
    <path d="M22.0121 38.871C25.0628 38.871 27.5359 36.3914 27.5359 33.3324C27.5359 30.2736 25.0628 27.794 22.0121 27.794C18.9614 27.794 16.4883 30.2736 16.4883 33.3324C16.4883 36.3914 18.9614 38.871 22.0121 38.871Z" fill="#FFAD92"/>
    <path fill-rule="evenodd" clip-rule="evenodd" d="M31.2504 16.5H47.1234C51.3838 16.5 54.8376 20.0007 54.8376 24.319V39.3154C54.8376 48.0766 47.8306 55.1788 39.1868 55.1788C30.5432 55.1788 23.5361 48.0766 23.5361 39.3154V24.319C23.5361 20.0007 26.9899 16.5 31.2504 16.5Z" fill="#FFAD92"/>
    <path d="M45.6316 29.6604C45.6316 28.6296 44.8074 27.794 43.7904 27.794C42.7736 27.794 41.9492 28.6296 41.9492 29.6604V33.3124C41.9492 34.343 42.7736 35.1786 43.7904 35.1786C44.8074 35.1786 45.6316 34.343 45.6316 33.3124V29.6604Z" fill="#C97356"/>
    <path d="M36.4248 29.6604C36.4248 28.6296 35.6004 27.794 34.5834 27.794C33.5665 27.794 32.7422 28.6296 32.7422 29.6604V33.3124C32.7422 34.343 33.5665 35.1786 34.5834 35.1786C35.6004 35.1786 36.4248 34.343 36.4248 33.3124V29.6604Z" fill="#C97356"/>
    <path d="M47.4724 13.9328C47.9836 13.9328 48.3982 14.3529 48.3982 14.8711C48.3982 23.546 41.4598 30.5786 32.901 30.5786H30.7423C22.1834 30.5786 15.2451 23.546 15.2451 14.8711C15.2451 14.3529 15.6596 13.9328 16.1708 13.9328H47.4724Z" fill="#FFD900"/>
    <path d="M31.9575 40.2748C31.3996 39.7094 31.3996 38.7926 31.9575 38.2272C32.5154 37.6616 33.4199 37.6616 33.9778 38.2272C36.7673 41.0544 41.2899 41.0544 44.0793 38.2272C44.6373 37.6616 45.5417 37.6616 46.0997 38.2272C46.6575 38.7926 46.6575 39.7094 46.0997 40.2748C42.1943 44.2332 35.8627 44.2332 31.9575 40.2748Z" fill="#DE8A6E"/>
    </g>
    </g>
    <defs>
    <clipPath id="clip0_111_1848">
    <rect width="108.391" height="80" fill="white" transform="translate(0.546875 0.5)"/>
    </clipPath>
    </defs>
    </svg>
    