<svg width="109" height="80" viewBox="0 0 109 80" fill="none" xmlns="http://www.w3.org/2000/svg">
    <g clip-path="url(#clip0_111_1826)">
    <path d="M26.3511 44.8787H81.3887C90.6451 44.8787 98.149 52.3826 98.149 61.639V62.3095C98.149 71.5659 90.6451 79.0698 81.3887 79.0698H26.3511C17.0946 79.0698 9.59082 71.5659 9.59082 62.3095V61.639C9.59082 52.3826 17.0946 44.8787 26.3511 44.8787Z" fill="#2D2D2D"/>
    <path d="M71.9539 78.8307H35.6004C25.1051 78.8307 16.6094 70.9017 16.6094 60.9195V60.5478C16.6068 52.6032 18.0212 44.4269 20.7866 36.979L27.4413 19.0855C29.5057 13.855 33.1152 9.37773 37.7886 6.25049C42.4621 3.12326 47.9776 1.49454 53.6002 1.5814C59.1755 1.49912 64.6458 3.10254 69.2944 6.18167C73.9432 9.26079 77.5536 13.6721 79.6528 18.8378L86.5023 36.7313C89.4334 44.3566 90.939 52.7503 90.9447 60.9195C90.9447 70.9017 82.4316 78.8307 71.9539 78.8307Z" fill="#2D2D2D"/>
    <path d="M80.1843 25.7762C77.8982 22.7005 75.0147 20.1181 71.7066 18.1833C66.2759 15.0405 60.1052 13.4031 53.8308 13.44C42.415 13.44 32.0789 18.7497 26.6631 26.8381L27.4595 24.6081C29.5208 19.3788 33.127 14.9022 37.7974 11.7749C42.4679 8.64754 47.9806 7.01814 53.6007 7.10385C59.2618 7.07975 64.8039 8.73 69.5296 11.8471C74.1315 14.8594 77.6773 19.2343 79.6711 24.3603L80.1843 25.7762Z" fill="#FFD300"/>
    <path d="M31.5474 39.2565V57.7164C29.1694 57.6123 26.9233 56.5943 25.2775 54.8748C23.6316 53.1552 22.7129 50.8668 22.7129 48.4864C22.7129 46.1061 23.6316 43.8177 25.2775 42.0982C26.9233 40.3786 29.1694 39.3607 31.5474 39.2565Z" fill="#DC8E70"/>
    <path d="M85.0508 48.5126C85.046 50.9644 84.0689 53.3143 82.3333 55.0465C80.5979 56.7785 78.2461 57.7514 75.7943 57.7514H75.5996V39.2738H75.7943C78.2461 39.2738 80.5979 40.2466 82.3333 41.9787C84.0689 43.7108 85.046 46.0606 85.0508 48.5126Z" fill="#DC8E70"/>
    <path d="M77.936 33.327V54.7856C77.9379 56.6203 77.7301 58.4493 77.3163 60.2369C75.9576 66.0619 72.504 71.184 67.6133 74.6276C62.7226 78.0713 56.7363 79.596 50.7941 78.9118C44.8519 78.2276 39.369 75.382 35.3889 70.9167C31.409 66.4515 29.2101 60.6786 29.2109 54.6972V33.327C29.2109 29.7407 30.6356 26.3015 33.1714 23.7656C35.7073 21.2297 39.1467 19.8046 42.7328 19.8046H64.3962C66.1735 19.8028 67.9337 20.1508 69.5763 20.8293C71.2189 21.5077 72.7116 22.5035 73.9691 23.7594C75.2266 25.0151 76.2242 26.5066 76.9049 28.1483C77.5856 29.7901 77.936 31.5497 77.936 33.327Z" fill="#DC8E70"/>
    <path d="M63.9186 59.9993C63.6914 60.5719 63.413 61.1229 63.0868 61.6453C62.7482 62.2317 62.3445 62.7779 61.8833 63.2736C60.8435 64.4644 59.5606 65.4189 58.1212 66.0729C56.6819 66.7267 55.1193 67.0651 53.5383 67.0651C51.9574 67.0651 50.3948 66.7267 48.9553 66.0729C47.5161 65.4189 46.2332 64.4644 45.1933 63.2736C44.3352 62.3046 43.6471 61.1977 43.1579 59.9993C43.0949 59.8395 43.0717 59.6666 43.0901 59.4958C43.1085 59.325 43.1682 59.1611 43.2639 59.0183C43.3597 58.8757 43.4887 58.7583 43.6397 58.6764C43.7908 58.5944 43.9595 58.5503 44.1313 58.548H62.9452C63.1171 58.5503 63.2859 58.5944 63.4369 58.6764C63.588 58.7583 63.7169 58.8757 63.8126 59.0183C63.9084 59.1611 63.968 59.325 63.9866 59.4958C64.005 59.6666 63.9816 59.8395 63.9186 59.9993Z" fill="white"/>
    <path d="M49.4586 41.5395C49.4586 37.4438 46.1385 34.1237 42.0428 34.1237C37.9471 34.1237 34.627 37.4438 34.627 41.5395V47.2385C34.627 51.334 37.9471 54.6543 42.0428 54.6543C46.1385 54.6543 49.4586 51.334 49.4586 47.2385V41.5395Z" fill="white"/>
    <path d="M43.7411 39.7517H43.7234C42.0811 39.7517 40.75 41.083 40.75 42.7251V46.5127C40.75 48.1548 42.0811 49.4861 43.7234 49.4861H43.7411C45.3832 49.4861 46.7145 48.1548 46.7145 46.5127V42.7251C46.7145 41.083 45.3832 39.7517 43.7411 39.7517Z" fill="#4B4B4B"/>
    <path d="M58.0967 47.2564C58.0967 51.3521 61.417 54.6722 65.5125 54.6722C69.6082 54.6722 72.9283 51.3521 72.9283 47.2564V41.5573C72.9283 37.4617 69.6082 34.1415 65.5125 34.1415C61.417 34.1415 58.0967 37.4617 58.0967 41.5573V47.2564Z" fill="white"/>
    <path d="M63.7937 49.5038H63.8114C65.4537 49.5038 66.7848 48.1726 66.7848 46.5304V42.7428C66.7848 41.1007 65.4537 39.7694 63.8114 39.7694H63.7937C62.1516 39.7694 60.8203 41.1007 60.8203 42.7428V46.5304C60.8203 48.1726 62.1516 49.5038 63.7937 49.5038Z" fill="#4B4B4B"/>
    <path d="M53.7768 35.1019C55.3908 35.1019 56.6992 36.4103 56.6992 38.0243V51.7332C56.6992 53.3472 55.3908 54.6556 53.7768 54.6556C52.1629 54.6556 50.8545 53.3472 50.8545 51.7332V38.0243C50.8545 36.4103 52.1629 35.1019 53.7768 35.1019Z" fill="#C96A46"/>
    <path d="M79.14 39.876C77.7416 39.5098 76.4388 38.8457 75.3208 37.9293C74.2027 37.0128 73.2958 35.8656 72.6622 34.5663C72.3622 33.3129 71.8014 32.137 71.0162 31.115C69.9317 30.3062 68.6462 29.8105 67.2995 29.6814C64.2801 29.1218 61.4178 27.9142 58.9102 26.1417C56.4855 24.3718 54.0608 22.1417 53.6006 19.2745H72.1844L78.6621 26.708L79.14 39.876Z" fill="#2D2D2D"/>
    <path d="M28.3975 39.8756C29.816 39.5094 31.1409 38.8469 32.2849 37.9317C33.4289 37.0167 34.3659 35.8695 35.0346 34.5659C35.3332 33.3088 35.9008 32.1313 36.6983 31.1147C37.7809 30.3027 39.0674 29.8064 40.415 29.6811C43.4283 29.119 46.2841 27.9114 48.7866 26.1413C51.2113 24.3714 53.2998 22.6015 53.7776 19.752L35.5301 19.3272L28.9992 26.3537L28.3975 39.8756Z" fill="#2D2D2D"/>
    </g>
    <defs>
    <clipPath id="clip0_111_1826">
    <rect width="89.3023" height="80" fill="white" transform="translate(9.59082)"/>
    </clipPath>
    </defs>
    </svg>
    