<svg width="298" height="233" viewBox="0 0 298 233" fill="none" xmlns="http://www.w3.org/2000/svg">
    <path d="M186.49 87.3055H74.3403V147.831H186.49V87.3055Z" fill="#AA572A"/>
    <path d="M167.724 125.578H86.0674" stroke="#8F4720" stroke-width="4.19514"/>
    <path d="M172.249 135.369H86.8008V147.831H172.249V135.369Z" fill="#FFBC00"/>
    <mask id="mask0_111_948" style="mask-type:alpha" maskUnits="userSpaceOnUse" x="86" y="135" width="87" height="13">
    <path d="M172.249 135.369H86.8008V147.831H172.249V135.369Z" fill="#FFBC00"/>
    </mask>
    <g mask="url(#mask0_111_948)">
    <path d="M172.926 131.879L133.905 92.8581L55.8613 170.902L94.8826 209.923L172.926 131.879Z" fill="#FFD300"/>
    </g>
    <path d="M182.017 32.121H77.0321C73.5792 32.121 70.7793 34.9146 70.7793 38.3612V93.5258C70.7793 96.9724 73.5792 99.766 77.0321 99.766H182.017C185.469 99.766 188.269 96.9724 188.269 93.5258V38.3612C188.269 34.9146 185.469 32.121 182.017 32.121Z" fill="#AA572A"/>
    <path d="M86.8008 41.0204V44.5815H172.249V41.0204H86.8008Z" fill="#8F4720"/>
    <path d="M86.8008 65.9435V69.5045H172.249V65.9435H86.8008Z" fill="#8F4720"/>
    <path d="M167.724 100.657H86.0674" stroke="#8F4720" stroke-width="4.19514"/>
    <path d="M181.649 83.7445H74.8403V106.887H181.649V83.7445Z" fill="#FFBC00"/>
    <path d="M73.1951 25C70.8782 25 69 26.8782 69 29.1951V143.635C69 145.952 70.8782 147.831 73.1951 147.831H89.7279C92.0449 147.831 93.923 145.952 93.923 143.635V29.1951C93.923 26.8782 92.0449 25 89.7279 25H73.1951Z" fill="#FFBC00"/>
    <mask id="mask1_111_948" style="mask-type:alpha" maskUnits="userSpaceOnUse" x="69" y="25" width="25" height="123">
    <path d="M73.1951 25C70.8782 25 69 26.8782 69 29.1951V143.635C69 145.952 70.8782 147.831 73.1951 147.831H89.7279C92.0449 147.831 93.923 145.952 93.923 143.635V29.1951C93.923 26.8782 92.0449 25 89.7279 25H73.1951Z" fill="#FFBC00"/>
    </mask>
    <g mask="url(#mask1_111_948)">
    <path d="M109.053 20.5497L34.4185 95.1845L59.7467 120.513L134.382 45.878L109.053 20.5497Z" fill="#FFD300"/>
    </g>
    <mask id="mask2_111_948" style="mask-type:alpha" maskUnits="userSpaceOnUse" x="69" y="25" width="25" height="123">
    <path d="M73.1951 25C70.8782 25 69 26.8782 69 29.1951V143.635C69 145.952 70.8782 147.831 73.1951 147.831H89.7279C92.0449 147.831 93.923 145.952 93.923 143.635V29.1951C93.923 26.8782 92.0449 25 89.7279 25H73.1951Z" fill="#FFBC00"/>
    </mask>
    <g mask="url(#mask2_111_948)">
    <path d="M94.8681 125.304L44.938 175.234L59.7469 190.043L109.677 140.113L94.8681 125.304Z" fill="#FFD300"/>
    </g>
    <path d="M171.103 25C168.786 25 166.908 26.8782 166.908 29.1951V143.635C166.908 145.952 168.786 147.831 171.103 147.831H187.636C189.953 147.831 191.831 145.952 191.831 143.635V29.1951C191.831 26.8782 189.953 25 187.636 25H171.103Z" fill="#FFBC00"/>
    <mask id="mask3_111_948" style="mask-type:alpha" maskUnits="userSpaceOnUse" x="166" y="25" width="26" height="123">
    <path d="M171.103 25C168.786 25 166.908 26.8782 166.908 29.1951V143.635C166.908 145.952 168.786 147.831 171.103 147.831H187.636C189.953 147.831 191.831 145.952 191.831 143.635V29.1951C191.831 26.8782 189.953 25 187.636 25H171.103Z" fill="#FFBC00"/>
    </mask>
    <g mask="url(#mask3_111_948)">
    <path d="M194.195 38.6573L125.773 107.079L161.751 143.057L230.173 74.6351L194.195 38.6573Z" fill="#FFD300"/>
    </g>
    <path d="M117.699 76.6245C115.382 76.6245 113.503 78.5027 113.503 80.8196V113.373C113.503 115.69 115.382 117.568 117.699 117.568H143.132C145.449 117.568 147.327 115.69 147.327 113.373V80.8196C147.327 78.5027 145.449 76.6245 143.132 76.6245H117.699Z" fill="#FFBC00"/>
    <path d="M138.426 92.0529C138.426 96.6406 134.84 100.36 130.416 100.36C125.992 100.36 122.405 96.6406 122.405 92.0529C122.405 87.4651 125.992 83.7455 130.416 83.7455C134.84 83.7455 138.426 87.4651 138.426 92.0529Z" fill="#DA8400"/>
    <path d="M137.188 106.088C136.465 104.027 135.809 98.9104 134.169 98.0789C131.635 96.796 128.577 96.4002 126.121 98.6269C125.007 99.6358 124.404 104.439 123.82 106.103C123.378 107.362 124.313 108.68 125.647 108.68L135.361 108.665C136.696 108.665 137.63 107.347 137.188 106.088Z" fill="#DA8400"/>
    <path d="M85.0216 95.3157C85.0216 97.7734 83.029 99.766 80.5713 99.766C78.1137 99.766 76.1211 97.7734 76.1211 95.3157C76.1211 92.8581 78.1137 90.8655 80.5713 90.8655C83.029 90.8655 85.0216 92.8581 85.0216 95.3157Z" fill="#F8A201"/>
    <path d="M85.0216 134.48C85.0216 136.937 83.029 138.93 80.5713 138.93C78.1137 138.93 76.1211 136.937 76.1211 134.48C76.1211 132.022 78.1137 130.03 80.5713 130.03C83.029 130.03 85.0216 132.022 85.0216 134.48Z" fill="#F8A201"/>
    <path d="M184.71 134.48C184.71 136.937 182.717 138.93 180.259 138.93C177.802 138.93 175.809 136.937 175.809 134.48C175.809 132.022 177.802 130.03 180.259 130.03C182.717 130.03 184.71 132.022 184.71 134.48Z" fill="#F8A201"/>
    <path d="M184.71 95.3157C184.71 97.7734 182.717 99.766 180.259 99.766C177.802 99.766 175.809 97.7734 175.809 95.3157C175.809 92.8581 177.802 90.8655 180.259 90.8655C182.717 90.8655 184.71 92.8581 184.71 95.3157Z" fill="#F8A201"/>
    <path d="M85.0216 56.1527C85.0216 58.6104 83.029 60.603 80.5713 60.603C78.1137 60.603 76.1211 58.6104 76.1211 56.1527C76.1211 53.6951 78.1137 51.7025 80.5713 51.7025C83.029 51.7025 85.0216 53.6951 85.0216 56.1527Z" fill="#F8A201"/>
    <path d="M184.71 56.1527C184.71 58.6104 182.717 60.603 180.259 60.603C177.802 60.603 175.809 58.6104 175.809 56.1527C175.809 53.6951 177.802 51.7025 180.259 51.7025C182.717 51.7025 184.71 53.6951 184.71 56.1527Z" fill="#F8A201"/>
    <rect y="184.5" width="260" height="20" rx="10" fill="#E5E5E5"/>
    <rect y="184.5" width="260" height="20" rx="10" fill="#FFC800"/>
    <rect x="10" y="189.5" width="240" height="6" rx="3" fill="white" fill-opacity="0.2"/>
    <g clip-path="url(#clip0_111_948)">
    <mask id="mask4_111_948" style="mask-type:luminance" maskUnits="userSpaceOnUse" x="223" y="157" width="75" height="76">
    <path d="M297.18 157.505H223.82V232.495H297.18V157.505Z" fill="white"/>
    </mask>
    <g mask="url(#mask4_111_948)">
    <mask id="mask5_111_948" style="mask-type:luminance" maskUnits="userSpaceOnUse" x="-166" y="-155" width="649" height="787">
    <path d="M482.036 462.161L135.059 631.392L-165.798 14.5434L181.18 -154.688L482.036 462.161Z" fill="white"/>
    </mask>
    <g mask="url(#mask5_111_948)">
    <g opacity="0.0418387">
    <path d="M261.325 173.424C260.198 173.974 258.837 173.505 258.287 172.379C257.737 171.252 258.206 169.891 259.333 169.341C260.46 168.792 261.821 169.26 262.37 170.387C262.92 171.514 262.451 172.875 261.325 173.424Z" fill="#FFC800"/>
    </g>
    </g>
    </g>
    </g>
    <g clip-path="url(#clip1_111_948)">
    <path opacity="0.3" fill-rule="evenodd" clip-rule="evenodd" d="M264.974 117.183H213.155C211.856 117.183 210.817 116.014 210.817 114.586C210.817 113.157 211.856 111.988 213.155 111.988H265.039C266.338 111.988 267.377 113.157 267.377 114.586C267.377 116.014 266.273 117.183 264.974 117.183Z" fill="#AFAFAF"/>
    <path fill-rule="evenodd" clip-rule="evenodd" d="M218.869 106.924C218.934 104.131 221.207 101.859 223.999 101.859H231.986C234.778 101.859 237.051 104.131 236.986 106.924C236.921 109.716 234.649 111.989 231.856 111.989H223.869C221.077 111.989 218.804 109.716 218.869 106.924Z" fill="#F49000"/>
    <path fill-rule="evenodd" clip-rule="evenodd" d="M260.36 106.3C260.361 109.148 258.091 111.381 255.287 111.335L247.245 111.275C244.442 111.229 242.117 108.961 242.116 106.113C242.114 103.265 244.385 101.032 247.188 101.078L255.23 101.138C258.034 101.184 260.315 103.499 260.36 106.3Z" fill="#F49000"/>
    <path d="M290.138 45.6103C292.83 47.2402 293.138 50.9928 290.817 52.9848C279.567 62.7652 263.038 64.2466 249.824 56.3169C236.662 48.348 230.184 33.0645 233.487 18.4587C234.194 15.4051 237.645 13.9422 240.285 15.6112L290.138 45.6103Z" fill="#58CC02"/>
    <path fill-rule="evenodd" clip-rule="evenodd" d="M206.142 7.89524C216.727 10.6875 223.805 11.8564 227.506 11.3369C231.142 10.8174 237.571 7.83031 246.792 2.24576C252.961 -1.45562 260.948 0.492478 264.65 6.66145C265.559 8.15499 266.143 9.84334 266.403 11.5966L271.987 51.4027C274.974 72.5071 260.234 92.053 239.13 94.9751C218.025 97.8973 198.479 83.2216 195.492 62.1172L189.908 22.2462C188.934 15.1032 193.869 8.54461 201.012 7.57056C202.7 7.31081 204.453 7.44069 206.142 7.89524Z" fill="#58CC02"/>
    <path d="M232.896 69.52C233.026 69.0655 232.571 68.6759 232.052 68.7408L222.116 70.1045C221.597 70.1694 221.272 70.6889 221.467 71.0785C222.571 73.0916 225.038 74.1955 227.636 73.8708C230.363 73.4812 232.441 71.7279 232.896 69.52ZM249.26 66.2732L239.324 67.6369C238.805 67.7018 238.48 68.2213 238.675 68.6109C239.779 70.624 242.247 71.7279 244.844 71.4032C247.441 71.0136 249.519 69.2603 250.039 67.0525C250.234 66.5979 249.779 66.2083 249.26 66.2732ZM241.467 75.8189L231.532 77.1826C231.013 77.2475 230.688 77.767 230.883 78.1566C231.987 80.1696 234.454 81.2736 237.052 80.9489C239.649 80.6242 241.727 78.806 242.247 76.5981C242.441 76.1436 242.052 75.754 241.467 75.8189Z" fill="#89E219"/>
    <path d="M237.636 46.0776C235.688 46.3374 232.441 46.7919 227.96 47.4413C226.467 52.831 221.921 57.1818 215.947 58.026L214.843 58.1558C206.921 59.2598 199.583 53.8051 198.479 45.8828L197.181 36.6618C196.401 31.2072 198.804 26.0772 202.96 23.0252C202.895 21.5316 203.09 20.0381 203.674 18.6095C203.999 17.7653 205.103 17.5056 205.817 18.09L208.674 20.4926H208.739C208.35 18.6095 208.544 16.6614 209.324 14.7782C209.648 13.9341 210.493 13.6743 211.207 14.2587L223.545 24.3239C227.246 26.2071 231.987 25.5577 235.039 22.8304L243.935 9.77811C244.454 8.99888 245.558 8.99887 246.143 9.71318C247.312 11.2067 248.026 12.8951 248.221 14.7133C248.221 14.7133 248.221 14.7133 248.286 14.7133L250.169 11.986C250.688 11.2067 251.792 11.2067 252.377 11.921C253.156 12.96 253.74 14.1289 254.13 15.2977C259.325 16.9211 263.351 21.3368 264.13 27.0512L265.429 36.2722C266.533 44.1296 261.013 51.4674 253.026 52.5713L252.052 52.7012C246.078 53.4804 240.558 50.6881 237.636 46.0776Z" fill="#89E219"/>
    <path fill-rule="evenodd" clip-rule="evenodd" d="M231.282 39.0178C234.269 38.6282 237.062 40.6412 237.451 43.6283L238.685 52.5895C239.075 55.5766 236.997 58.3039 234.01 58.6936C231.023 59.0832 228.23 57.0701 227.841 54.0831L226.672 45.1218C226.217 42.1997 228.295 39.4074 231.282 39.0178Z" fill="#F49000"/>
    <path fill-rule="evenodd" clip-rule="evenodd" d="M231.542 40.901C233.814 40.5763 235.957 42.1998 236.282 44.6024L237.126 50.7064C237.451 53.0442 235.892 55.252 233.555 55.5767C231.282 55.9014 229.139 54.278 228.814 51.8753L227.97 45.7713C227.71 43.4336 229.269 41.2257 231.542 40.901Z" fill="#B86D00"/>
    <path d="M224.399 44.7319C224.594 41.2903 227.451 38.2383 231.477 37.6538C235.049 37.1343 238.62 39.2772 239.724 42.589L239.789 43.0436L232.321 45.3163L224.529 45.1215L224.399 44.7319Z" fill="#FFC200"/>
    <path d="M230.438 41.1604C229.854 41.4851 229.139 41.2903 228.88 40.7059C228.555 40.1864 228.815 39.4721 229.334 39.2123C230.698 38.498 232.126 38.3032 233.555 38.6279C234.139 38.7578 234.594 39.3422 234.464 39.9916C234.334 40.576 233.75 40.9656 233.1 40.8357C232.191 40.576 231.282 40.7059 230.438 41.1604Z" fill="#FFDE00"/>
    <path fill-rule="evenodd" clip-rule="evenodd" d="M210.233 25.7524C216.012 24.9082 221.402 28.9992 222.246 34.7786L223.155 41.1423C223.999 46.9217 219.908 52.3114 214.129 53.0907C208.35 53.9348 202.96 49.8438 202.116 44.0645L201.207 37.7007C200.362 31.9214 204.388 26.5316 210.233 25.7524Z" fill="white"/>
    <path fill-rule="evenodd" clip-rule="evenodd" d="M213.205 31.051C215.997 30.6614 218.594 32.5445 218.984 35.2719L219.763 40.6616C220.153 43.3889 218.205 45.9215 215.347 46.3111C212.555 46.7007 209.958 44.8175 209.568 42.0902L208.854 36.7005C208.464 33.9731 210.412 31.4406 213.205 31.051Z" fill="#4B4B4B"/>
    <path d="M209.689 37.969C211.465 37.7194 212.706 36.1063 212.461 34.366C212.217 32.6258 210.579 31.4173 208.803 31.667C207.027 31.9166 205.786 33.5297 206.031 35.2699C206.275 37.0102 207.913 38.2186 209.689 37.969Z" fill="white"/>
    <path fill-rule="evenodd" clip-rule="evenodd" d="M247.831 20.4276C253.611 19.5834 259 23.6744 259.845 29.4538L260.754 35.8176C261.598 41.5969 257.507 46.9867 251.728 47.7659C245.948 48.6101 240.558 44.5191 239.714 38.7397L238.805 32.3759C237.961 26.5966 241.987 21.2718 247.831 20.4276Z" fill="white"/>
    <path fill-rule="evenodd" clip-rule="evenodd" d="M246.918 26.051C249.71 25.6614 252.308 27.5446 252.697 30.2719L253.476 35.6616C253.866 38.389 251.918 40.9215 249.061 41.3111C246.268 41.7007 243.671 39.8176 243.281 37.0902L242.502 31.7005C242.113 28.9732 244.061 26.4407 246.918 26.051Z" fill="#4B4B4B"/>
    <path d="M242.689 33.0994C244.465 32.8498 245.706 31.2367 245.461 29.4964C245.217 27.7562 243.579 26.5478 241.803 26.7974C240.027 27.047 238.786 28.6601 239.031 30.4004C239.275 32.1406 240.913 33.349 242.689 33.0994Z" fill="white"/>
    <mask id="mask6_111_948" style="mask-type:alpha" maskUnits="userSpaceOnUse" x="201" y="25" width="23" height="29">
    <path fill-rule="evenodd" clip-rule="evenodd" d="M210.48 25.1146C216.475 24.2388 222.067 28.4828 222.942 34.4783L223.885 41.08C224.761 47.0756 220.517 52.6668 214.522 53.4753C208.526 54.351 202.935 50.107 202.059 44.1115L201.116 37.5097C200.24 31.5143 204.417 25.9229 210.48 25.1146Z" fill="#89E219"/>
    </mask>
    <g mask="url(#mask6_111_948)">
    </g>
    <mask id="mask7_111_948" style="mask-type:alpha" maskUnits="userSpaceOnUse" x="201" y="25" width="23" height="29">
    <path fill-rule="evenodd" clip-rule="evenodd" d="M210.48 25.1146C216.475 24.2388 222.067 28.4828 222.942 34.4783L223.885 41.08C224.761 47.0756 220.517 52.6668 214.522 53.4753C208.526 54.351 202.935 50.107 202.059 44.1115L201.116 37.5097C200.24 31.5143 204.417 25.9229 210.48 25.1146Z" fill="#89E219"/>
    </mask>
    <g mask="url(#mask7_111_948)">
    </g>
    <mask id="mask8_111_948" style="mask-type:alpha" maskUnits="userSpaceOnUse" x="238" y="20" width="23" height="29">
    <path fill-rule="evenodd" clip-rule="evenodd" d="M247.48 20.1146C253.475 19.2388 259.067 23.4828 259.942 29.4783L260.885 36.08C261.761 42.0756 257.517 47.6668 251.522 48.4753C245.526 49.351 239.935 45.107 239.059 39.1115L238.116 32.5097C237.24 26.5143 241.417 20.9229 247.48 20.1146Z" fill="#89E219"/>
    </mask>
    <g mask="url(#mask8_111_948)">
    <rect x="242.817" y="51.9245" width="24" height="1" transform="rotate(-18 242.817 51.9245)" fill="#89E219"/>
    </g>
    <mask id="mask9_111_948" style="mask-type:alpha" maskUnits="userSpaceOnUse" x="238" y="20" width="23" height="29">
    <path fill-rule="evenodd" clip-rule="evenodd" d="M247.48 20.1146C253.475 19.2388 259.067 23.4828 259.942 29.4783L260.885 36.08C261.761 42.0756 257.517 47.6668 251.522 48.4753C245.526 49.351 239.935 45.107 239.059 39.1115L238.116 32.5097C237.24 26.5143 241.417 20.9229 247.48 20.1146Z" fill="#89E219"/>
    </mask>
    <g mask="url(#mask9_111_948)">
    <rect x="233.06" y="23.5466" width="25" height="1" transform="rotate(-18 233.06 23.5466)" fill="#89E219"/>
    </g>
    </g>
    <defs>
    <clipPath id="clip0_111_948">
    <rect width="73.3594" height="75" fill="white" transform="translate(223.82 157.5)"/>
    </clipPath>
    <clipPath id="clip1_111_948">
    <rect width="125" height="118" fill="white" transform="translate(169)"/>
    </clipPath>
    </defs>
    </svg>
    